<svg version="1.1" id="Layer_1" xmlns="http://www.w3.org/2000/svg" xmlns:xlink="http://www.w3.org/1999/xlink" x="0px" y="0px"
	 width="100%" viewBox="0 0 2048 2048" enable-background="new 0 0 2048 2048" xml:space="preserve">
<path fill="#000000" opacity="1.000000" stroke="none" 
	d="
M2049.000000,2.000000 
	C2049.000000,684.268799 2049.000000,1366.537598 2049.000000,2049.000000 
	C1366.962402,2049.000000 684.924805,2049.000000 2.444160,2048.556396 
	C2.001140,1370.287354 2.000931,692.461853 2.005992,14.636340 
	C2.006023,10.471891 2.078613,6.307442 2.542520,2.079940 
	C4.134064,2.012729 5.300410,2.004930 6.466756,2.004927 
	C687.311157,2.002937 1368.155640,2.001472 2049.000000,2.000000 
M1467.134888,1127.007690 
	C1449.720825,1126.645874 1441.527344,1115.736084 1445.965820,1098.845947 
	C1449.692383,1084.664795 1456.450562,1072.001709 1464.937012,1060.128662 
	C1479.939819,1039.138428 1494.794800,1018.042114 1509.694336,996.977966 
	C1510.466187,995.886963 1511.074585,994.680420 1512.173218,992.830383 
	C1440.152344,992.830383 1369.109375,992.830383 1297.396362,992.830383 
	C1323.625000,955.777283 1349.451538,919.292236 1375.733154,882.164246 
	C1346.793457,882.164246 1319.128784,882.104492 1291.465820,882.297607 
	C1289.608032,882.310608 1287.135254,883.781372 1286.009399,885.340271 
	C1273.242676,903.017700 1260.682007,920.843872 1248.068359,938.631836 
	C1239.018921,951.393372 1230.073120,964.230225 1220.886108,976.891968 
	C1215.599976,984.177490 1207.202271,987.091919 1199.330811,984.906860 
	C1191.908203,982.846313 1186.606934,975.931946 1186.102295,966.793701 
	C1185.828735,961.839539 1185.974609,956.773987 1186.691040,951.869629 
	C1189.089111,935.455017 1194.998047,920.102539 1201.703613,905.047791 
	C1205.052979,897.528137 1208.673218,890.129272 1212.313477,882.372375 
	C1211.145020,882.273987 1210.517334,882.175171 1209.889648,882.174988 
	C1182.724121,882.166687 1155.557983,882.093811 1128.394409,882.320374 
	C1126.443115,882.336670 1123.877197,884.097290 1122.661255,885.804749 
	C1090.421753,931.081970 1058.323853,976.459961 1026.197754,1021.817871 
	C1020.691772,1029.591553 1015.167908,1037.352539 1009.562134,1045.246460 
	C1008.933105,1044.571777 1008.676270,1044.352539 1008.487061,1044.085327 
	C971.345093,991.662109 934.175171,939.258606 897.148071,886.754272 
	C894.805786,883.432983 892.519348,882.014648 888.332214,882.051331 
	C862.668823,882.276184 837.002502,882.164429 811.337158,882.164856 
	C809.937073,882.164856 808.536987,882.164856 806.371277,882.164856 
	C807.751831,884.284363 808.585205,885.663696 809.514160,886.975342 
	C838.082153,927.312927 866.441772,967.801147 895.378235,1007.872742 
	C903.282104,1018.818054 908.837646,1030.203003 910.668884,1043.583252 
	C912.475220,1056.781250 914.875427,1069.879517 913.015320,1083.302979 
	C910.841248,1098.992065 900.564392,1104.738159 887.290405,1097.108765 
	C860.400452,1081.653442 837.168640,1061.871338 819.039124,1036.610962 
	C791.284180,997.939270 763.942017,958.971252 736.420166,920.132141 
	C727.516052,907.566589 718.597595,895.011108 709.497253,882.185486 
	C708.009033,884.200806 706.799866,885.780884 705.650330,887.403259 
	C674.182312,931.813538 642.644470,976.174866 611.363098,1020.716309 
	C607.842041,1025.729980 603.517395,1028.541382 597.920959,1030.140503 
	C588.352844,1032.874390 581.345520,1029.688354 580.253113,1019.921021 
	C579.104187,1009.648499 579.255310,998.951111 580.745544,988.717102 
	C584.709167,961.499329 593.463623,935.473083 602.507568,909.587585 
	C605.662720,900.556824 609.043274,891.604736 612.331177,882.588379 
	C611.522339,882.353760 611.210938,882.184509 610.899353,882.184326 
	C583.233887,882.171082 555.567993,882.115662 527.903809,882.304871 
	C526.219971,882.316345 524.025146,883.898804 522.953308,885.387573 
	C511.091827,901.864258 499.230347,918.346558 487.722412,935.070557 
	C476.821777,950.912048 461.805756,958.442810 442.831543,958.491516 
	C419.022858,958.552612 397.586639,950.025452 376.874695,939.490845 
	C347.961121,924.784607 321.800415,905.945068 296.967926,885.163391 
	C294.924988,883.453674 291.728180,882.312439 289.056213,882.290588 
	C263.225677,882.078857 237.392685,882.163391 211.560410,882.163330 
	C209.947983,882.163330 208.335571,882.163330 206.983536,882.163330 
	C206.983536,890.704041 207.493179,898.717407 206.876465,906.643066 
	C205.628250,922.684204 201.272095,937.330139 187.113235,947.377136 
	C183.882996,949.669373 181.245193,953.387329 179.468140,957.005737 
	C176.380737,963.292236 178.833649,970.187866 184.291718,972.946411 
	C189.750885,975.705505 196.471741,973.381714 199.764145,966.916138 
	C202.003632,962.518372 203.432983,957.683655 204.983795,952.965149 
	C207.468552,945.405029 209.315598,937.606934 212.221298,930.219910 
	C217.140228,917.714478 224.908264,916.037109 234.598770,925.422485 
	C239.467773,930.138184 243.831818,935.500244 247.764999,941.038208 
	C296.720886,1009.969727 345.554657,1078.987915 394.422668,1147.981812 
	C399.366058,1154.961182 404.327667,1161.927734 409.465057,1169.159546 
	C441.362091,1124.135254 473.010345,1079.651611 504.407562,1034.991455 
	C511.088257,1025.488770 519.319824,1018.076599 529.400696,1012.533813 
	C545.775879,1003.530457 552.415100,1005.810974 559.069214,1023.596558 
	C570.586487,1054.380981 564.788757,1083.147339 547.696655,1110.162354 
	C541.387146,1120.134888 534.130615,1129.508179 527.306396,1139.155151 
	C520.442200,1148.858398 513.578369,1158.562134 506.494720,1168.576172 
	C507.571442,1168.805664 508.012848,1168.981812 508.454407,1168.982056 
	C535.953247,1168.998047 563.452393,1169.043945 590.950317,1168.888062 
	C592.542480,1168.879028 594.648621,1167.604492 595.628723,1166.268555 
	C602.716248,1156.605957 609.715942,1146.871216 616.454163,1136.962646 
	C620.497986,1131.016235 625.883850,1126.938599 632.632141,1125.217529 
	C639.026489,1123.586670 645.665771,1122.454590 652.249268,1122.117798 
	C668.663513,1121.278198 684.783997,1124.031372 700.745483,1127.516602 
	C742.436462,1136.619385 782.341492,1151.168091 821.670959,1167.453735 
	C823.751221,1168.315063 826.109253,1168.929199 828.340698,1168.937500 
	C855.172546,1169.037354 882.004944,1169.004761 908.837158,1168.985718 
	C909.877014,1168.984863 910.916809,1168.771484 912.439758,1168.604004 
	C907.010376,1160.916138 901.922363,1153.742310 896.867065,1146.545288 
	C891.702515,1139.192627 886.382874,1131.937012 881.552246,1124.369995 
	C880.308899,1122.422363 879.513000,1118.624756 880.568237,1117.196167 
	C881.716309,1115.642090 885.295654,1115.283813 887.749451,1115.439209 
	C891.186707,1115.656738 894.630005,1116.613037 897.955444,1117.630249 
	C922.193787,1125.043701 944.833374,1136.234619 967.466309,1147.395142 
	C981.579163,1154.354248 995.507568,1161.687622 1009.643982,1168.916992 
	C1010.223389,1168.087280 1010.688538,1167.412598 1011.162354,1166.744019 
	C1048.601196,1113.916870 1086.032959,1061.084839 1123.489014,1008.269897 
	C1128.775757,1000.815186 1133.630249,1000.309204 1139.263916,1007.574951 
	C1143.906128,1013.561890 1147.842896,1020.214233 1151.305786,1026.974609 
	C1161.595825,1047.063232 1177.670410,1057.780762 1200.321045,1057.960815 
	C1223.985107,1058.148926 1247.663696,1057.563354 1271.312988,1058.185059 
	C1283.383667,1058.502441 1295.530396,1060.050537 1307.412231,1062.274048 
	C1319.190308,1064.478271 1330.538330,1068.603760 1339.877686,1076.668335 
	C1347.965210,1083.651978 1350.049927,1091.908569 1346.124023,1101.790649 
	C1344.787964,1105.154175 1342.959961,1108.396240 1340.910522,1111.388306 
	C1335.079834,1119.900391 1329.010864,1128.249023 1323.051270,1136.673096 
	C1315.603271,1147.201050 1308.171021,1157.740234 1300.519897,1168.574585 
	C1301.558594,1168.801880 1301.999268,1168.982544 1302.439941,1168.982788 
	C1329.938843,1168.998779 1357.438110,1169.053833 1384.935791,1168.871094 
	C1386.628174,1168.859863 1388.827393,1167.342285 1389.908691,1165.875244 
	C1396.720093,1156.633789 1403.173462,1147.128906 1409.959229,1137.867920 
	C1415.837646,1129.845215 1422.786621,1127.745605 1431.290527,1131.401245 
	C1434.457153,1132.762695 1437.490967,1134.636719 1440.239136,1136.731323 
	C1450.589600,1144.620483 1458.189575,1154.960938 1465.214844,1165.727905 
	C1466.722778,1168.039062 1468.175659,1169.092163 1471.076782,1169.078003 
	C1497.741699,1168.947754 1524.407837,1168.951904 1551.072754,1169.075073 
	C1553.931152,1169.088257 1555.537720,1168.132935 1557.108765,1165.849609 
	C1563.334229,1156.801270 1569.788452,1147.910889 1576.119141,1138.934570 
	C1583.122314,1129.004639 1592.344849,1122.159180 1604.358765,1119.963135 
	C1614.808838,1118.052979 1625.370483,1116.308105 1635.953735,1115.677490 
	C1651.356323,1114.760010 1666.728394,1116.122437 1680.610474,1123.635742 
	C1713.143799,1141.243774 1747.478882,1154.616333 1782.030396,1167.508911 
	C1784.600098,1168.467773 1787.504883,1168.927368 1790.256592,1168.938354 
	C1816.421875,1169.042969 1842.587524,1169.004272 1868.753174,1168.989746 
	C1870.138672,1168.989014 1871.524170,1168.835083 1873.531860,1168.715332 
	C1805.652100,1072.909546 1738.184692,977.685852 1670.478271,882.124695 
	C1668.656250,884.644836 1667.182495,886.648193 1665.744751,888.677063 
	C1615.605957,959.431335 1565.452148,1030.175049 1515.350342,1100.955444 
	C1505.260620,1115.209717 1491.754028,1123.805420 1474.449585,1127.159790 
	C1477.885620,1127.159790 1481.321533,1127.159790 1484.757568,1127.159790 
	C1488.259277,1127.159790 1491.761108,1127.159790 1495.692383,1127.159790 
	C1488.790527,1143.173706 1482.010986,1147.520508 1466.445801,1146.438843 
	C1459.269653,1145.940308 1452.701782,1143.907593 1448.070557,1137.857666 
	C1444.394409,1133.055664 1444.816772,1131.302368 1450.613525,1130.186157 
	C1456.311035,1129.088867 1462.140747,1128.678589 1468.659546,1128.002686 
	C1469.635254,1127.809692 1470.610962,1127.616821 1472.774292,1127.189087 
	C1471.092896,1126.473022 1470.544312,1126.019897 1470.074585,1126.090454 
	C1469.356567,1126.198242 1468.692749,1126.667480 1467.134888,1127.007690 
M1453.701294,1138.912842 
	C1456.922852,1136.759399 1456.920776,1135.870972 1452.970825,1133.001343 
	C1452.970825,1135.263306 1452.970825,1137.004028 1453.701294,1138.912842 
M1463.604980,1138.798950 
	C1463.213013,1138.794800 1462.821045,1138.790649 1462.429077,1138.786499 
	C1462.427490,1138.949219 1462.415039,1139.253418 1462.425903,1139.254150 
	C1462.815918,1139.284180 1463.208374,1139.285889 1463.604980,1138.798950 
z"/>
<path fill="#BEBEBE" opacity="1.000000" stroke="none" 
	d="
M2.117323,2.142993 
	C2.078613,6.307442 2.006023,10.471891 2.005992,14.636340 
	C2.000931,692.461853 2.001140,1370.287354 2.000557,2048.556396 
	C1.666667,2048.833252 1.056216,2048.684082 1.044453,2048.497314 
	C0.960984,2047.169067 1.000000,2045.833374 1.000000,2044.500000 
	C1.000000,1363.333374 1.000000,682.166687 1.522158,1.286484 
	C2.068652,1.762977 2.092987,1.952985 2.117323,2.142993 
z"/>
<path fill="#7E7E7E" opacity="1.000000" stroke="none" 
	d="
M2.542520,2.079940 
	C2.092987,1.952985 2.068652,1.762977 2.022158,1.286484 
	C684.333313,1.000000 1366.666626,1.000000 2049.000000,1.500000 
	C1368.155640,2.001472 687.311157,2.002937 6.466756,2.004927 
	C5.300410,2.004930 4.134064,2.012729 2.542520,2.079940 
z"/>
<path fill="#FEFEFE" opacity="1.000000" stroke="none" 
	d="
M1467.912476,1127.966919 
	C1462.140747,1128.678589 1456.311035,1129.088867 1450.613525,1130.186157 
	C1444.816772,1131.302368 1444.394409,1133.055664 1448.070557,1137.857666 
	C1452.701782,1143.907593 1459.269653,1145.940308 1466.445801,1146.438843 
	C1482.010986,1147.520508 1488.790527,1143.173706 1495.692383,1127.159790 
	C1491.761108,1127.159790 1488.259277,1127.159790 1484.757568,1127.159790 
	C1481.321533,1127.159790 1477.885620,1127.159790 1474.449585,1127.159790 
	C1491.754028,1123.805420 1505.260620,1115.209717 1515.350342,1100.955444 
	C1565.452148,1030.175049 1615.605957,959.431335 1665.744751,888.677063 
	C1667.182495,886.648193 1668.656250,884.644836 1670.478271,882.124695 
	C1738.184692,977.685852 1805.652100,1072.909546 1873.531860,1168.715332 
	C1871.524170,1168.835083 1870.138672,1168.989014 1868.753174,1168.989746 
	C1842.587524,1169.004272 1816.421875,1169.042969 1790.256592,1168.938354 
	C1787.504883,1168.927368 1784.600098,1168.467773 1782.030396,1167.508911 
	C1747.478882,1154.616333 1713.143799,1141.243774 1680.610474,1123.635742 
	C1666.728394,1116.122437 1651.356323,1114.760010 1635.953735,1115.677490 
	C1625.370483,1116.308105 1614.808838,1118.052979 1604.358765,1119.963135 
	C1592.344849,1122.159180 1583.122314,1129.004639 1576.119141,1138.934570 
	C1569.788452,1147.910889 1563.334229,1156.801270 1557.108765,1165.849609 
	C1555.537720,1168.132935 1553.931152,1169.088257 1551.072754,1169.075073 
	C1524.407837,1168.951904 1497.741699,1168.947754 1471.076782,1169.078003 
	C1468.175659,1169.092163 1466.722778,1168.039062 1465.214844,1165.727905 
	C1458.189575,1154.960938 1450.589600,1144.620483 1440.239136,1136.731323 
	C1437.490967,1134.636719 1434.457153,1132.762695 1431.290527,1131.401245 
	C1422.786621,1127.745605 1415.837646,1129.845215 1409.959229,1137.867920 
	C1403.173462,1147.128906 1396.720093,1156.633789 1389.908691,1165.875244 
	C1388.827393,1167.342285 1386.628174,1168.859863 1384.935791,1168.871094 
	C1357.438110,1169.053833 1329.938843,1168.998779 1302.439941,1168.982788 
	C1301.999268,1168.982544 1301.558594,1168.801880 1300.519897,1168.574585 
	C1308.171021,1157.740234 1315.603271,1147.201050 1323.051270,1136.673096 
	C1329.010864,1128.249023 1335.079834,1119.900391 1340.910522,1111.388306 
	C1342.959961,1108.396240 1344.787964,1105.154175 1346.124023,1101.790649 
	C1350.049927,1091.908569 1347.965210,1083.651978 1339.877686,1076.668335 
	C1330.538330,1068.603760 1319.190308,1064.478271 1307.412231,1062.274048 
	C1295.530396,1060.050537 1283.383667,1058.502441 1271.312988,1058.185059 
	C1247.663696,1057.563354 1223.985107,1058.148926 1200.321045,1057.960815 
	C1177.670410,1057.780762 1161.595825,1047.063232 1151.305786,1026.974609 
	C1147.842896,1020.214233 1143.906128,1013.561890 1139.263916,1007.574951 
	C1133.630249,1000.309204 1128.775757,1000.815186 1123.489014,1008.269897 
	C1086.032959,1061.084839 1048.601196,1113.916870 1011.162354,1166.744019 
	C1010.688538,1167.412598 1010.223389,1168.087280 1009.643982,1168.916992 
	C995.507568,1161.687622 981.579163,1154.354248 967.466309,1147.395142 
	C944.833374,1136.234619 922.193787,1125.043701 897.955444,1117.630249 
	C894.630005,1116.613037 891.186707,1115.656738 887.749451,1115.439209 
	C885.295654,1115.283813 881.716309,1115.642090 880.568237,1117.196167 
	C879.513000,1118.624756 880.308899,1122.422363 881.552246,1124.369995 
	C886.382874,1131.937012 891.702515,1139.192627 896.867065,1146.545288 
	C901.922363,1153.742310 907.010376,1160.916138 912.439758,1168.604004 
	C910.916809,1168.771484 909.877014,1168.984863 908.837158,1168.985718 
	C882.004944,1169.004761 855.172546,1169.037354 828.340698,1168.937500 
	C826.109253,1168.929199 823.751221,1168.315063 821.670959,1167.453735 
	C782.341492,1151.168091 742.436462,1136.619385 700.745483,1127.516602 
	C684.783997,1124.031372 668.663513,1121.278198 652.249268,1122.117798 
	C645.665771,1122.454590 639.026489,1123.586670 632.632141,1125.217529 
	C625.883850,1126.938599 620.497986,1131.016235 616.454163,1136.962646 
	C609.715942,1146.871216 602.716248,1156.605957 595.628723,1166.268555 
	C594.648621,1167.604492 592.542480,1168.879028 590.950317,1168.888062 
	C563.452393,1169.043945 535.953247,1168.998047 508.454407,1168.982056 
	C508.012848,1168.981812 507.571442,1168.805664 506.494720,1168.576172 
	C513.578369,1158.562134 520.442200,1148.858398 527.306396,1139.155151 
	C534.130615,1129.508179 541.387146,1120.134888 547.696655,1110.162354 
	C564.788757,1083.147339 570.586487,1054.380981 559.069214,1023.596558 
	C552.415100,1005.810974 545.775879,1003.530457 529.400696,1012.533813 
	C519.319824,1018.076599 511.088257,1025.488770 504.407562,1034.991455 
	C473.010345,1079.651611 441.362091,1124.135254 409.465057,1169.159546 
	C404.327667,1161.927734 399.366058,1154.961182 394.422668,1147.981812 
	C345.554657,1078.987915 296.720886,1009.969727 247.764999,941.038208 
	C243.831818,935.500244 239.467773,930.138184 234.598770,925.422485 
	C224.908264,916.037109 217.140228,917.714478 212.221298,930.219910 
	C209.315598,937.606934 207.468552,945.405029 204.983795,952.965149 
	C203.432983,957.683655 202.003632,962.518372 199.764145,966.916138 
	C196.471741,973.381714 189.750885,975.705505 184.291718,972.946411 
	C178.833649,970.187866 176.380737,963.292236 179.468140,957.005737 
	C181.245193,953.387329 183.882996,949.669373 187.113235,947.377136 
	C201.272095,937.330139 205.628250,922.684204 206.876465,906.643066 
	C207.493179,898.717407 206.983536,890.704041 206.983536,882.163330 
	C208.335571,882.163330 209.947983,882.163330 211.560410,882.163330 
	C237.392685,882.163391 263.225677,882.078857 289.056213,882.290588 
	C291.728180,882.312439 294.924988,883.453674 296.967926,885.163391 
	C321.800415,905.945068 347.961121,924.784607 376.874695,939.490845 
	C397.586639,950.025452 419.022858,958.552612 442.831543,958.491516 
	C461.805756,958.442810 476.821777,950.912048 487.722412,935.070557 
	C499.230347,918.346558 511.091827,901.864258 522.953308,885.387573 
	C524.025146,883.898804 526.219971,882.316345 527.903809,882.304871 
	C555.567993,882.115662 583.233887,882.171082 610.899353,882.184326 
	C611.210938,882.184509 611.522339,882.353760 612.331177,882.588379 
	C609.043274,891.604736 605.662720,900.556824 602.507568,909.587585 
	C593.463623,935.473083 584.709167,961.499329 580.745544,988.717102 
	C579.255310,998.951111 579.104187,1009.648499 580.253113,1019.921021 
	C581.345520,1029.688354 588.352844,1032.874390 597.920959,1030.140503 
	C603.517395,1028.541382 607.842041,1025.729980 611.363098,1020.716309 
	C642.644470,976.174866 674.182312,931.813538 705.650330,887.403259 
	C706.799866,885.780884 708.009033,884.200806 709.497253,882.185486 
	C718.597595,895.011108 727.516052,907.566589 736.420166,920.132141 
	C763.942017,958.971252 791.284180,997.939270 819.039124,1036.610962 
	C837.168640,1061.871338 860.400452,1081.653442 887.290405,1097.108765 
	C900.564392,1104.738159 910.841248,1098.992065 913.015320,1083.302979 
	C914.875427,1069.879517 912.475220,1056.781250 910.668884,1043.583252 
	C908.837646,1030.203003 903.282104,1018.818054 895.378235,1007.872742 
	C866.441772,967.801147 838.082153,927.312927 809.514160,886.975342 
	C808.585205,885.663696 807.751831,884.284363 806.371277,882.164856 
	C808.536987,882.164856 809.937073,882.164856 811.337158,882.164856 
	C837.002502,882.164429 862.668823,882.276184 888.332214,882.051331 
	C892.519348,882.014648 894.805786,883.432983 897.148071,886.754272 
	C934.175171,939.258606 971.345093,991.662109 1008.487061,1044.085327 
	C1008.676270,1044.352539 1008.933105,1044.571777 1009.562134,1045.246460 
	C1015.167908,1037.352539 1020.691772,1029.591553 1026.197754,1021.817871 
	C1058.323853,976.459961 1090.421753,931.081970 1122.661255,885.804749 
	C1123.877197,884.097290 1126.443115,882.336670 1128.394409,882.320374 
	C1155.557983,882.093811 1182.724121,882.166687 1209.889648,882.174988 
	C1210.517334,882.175171 1211.145020,882.273987 1212.313477,882.372375 
	C1208.673218,890.129272 1205.052979,897.528137 1201.703613,905.047791 
	C1194.998047,920.102539 1189.089111,935.455017 1186.691040,951.869629 
	C1185.974609,956.773987 1185.828735,961.839539 1186.102295,966.793701 
	C1186.606934,975.931946 1191.908203,982.846313 1199.330811,984.906860 
	C1207.202271,987.091919 1215.599976,984.177490 1220.886108,976.891968 
	C1230.073120,964.230225 1239.018921,951.393372 1248.068359,938.631836 
	C1260.682007,920.843872 1273.242676,903.017700 1286.009399,885.340271 
	C1287.135254,883.781372 1289.608032,882.310608 1291.465820,882.297607 
	C1319.128784,882.104492 1346.793457,882.164246 1375.733154,882.164246 
	C1349.451538,919.292236 1323.625000,955.777283 1297.396362,992.830383 
	C1369.109375,992.830383 1440.152344,992.830383 1512.173218,992.830383 
	C1511.074585,994.680420 1510.466187,995.886963 1509.694336,996.977966 
	C1494.794800,1018.042114 1479.939819,1039.138428 1464.937012,1060.128662 
	C1456.450562,1072.001709 1449.692383,1084.664795 1445.965820,1098.845947 
	C1441.527344,1115.736084 1449.720825,1126.645874 1467.596436,1127.246094 
	C1468.009521,1127.645264 1467.960938,1127.806152 1467.912476,1127.966919 
M702.765808,1117.907715 
	C723.581055,1124.396973 743.630005,1121.073608 762.834534,1112.209961 
	C773.400513,1107.333130 775.055542,1098.573730 768.528320,1089.150879 
	C766.160156,1085.732056 763.697205,1082.379272 761.293030,1078.985474 
	C744.082764,1054.690918 726.876526,1030.393311 709.444275,1005.779419 
	C690.769653,1032.158081 672.269287,1058.290405 653.692078,1084.531494 
	C668.173828,1098.609863 684.123840,1109.538452 702.765808,1117.907715 
M366.117706,984.370789 
	C380.503204,1004.629211 394.888702,1024.887695 409.475739,1045.429810 
	C421.240723,1028.832275 432.663757,1012.692810 444.114044,996.572632 
	C451.119934,986.709473 449.327301,978.438477 438.551086,972.891052 
	C424.831879,965.828613 411.241180,958.404053 397.074615,952.354370 
	C382.338409,946.061218 367.043701,941.039490 351.857269,935.860291 
	C347.554535,934.392944 342.009460,933.258240 339.135925,938.047485 
	C336.389465,942.624939 339.858490,946.989685 342.458374,950.756226 
	C350.106628,961.836243 357.979065,972.761475 366.117706,984.370789 
M1675.619385,1060.128662 
	C1667.627319,1069.978760 1660.112793,1080.120605 1656.953857,1092.718384 
	C1654.095337,1104.118042 1656.171631,1109.169189 1667.162964,1112.787720 
	C1690.778198,1120.562256 1714.607300,1127.692383 1738.404541,1134.902710 
	C1742.156128,1136.039307 1746.215942,1136.801025 1750.102905,1136.688721 
	C1755.162598,1136.542603 1757.162354,1133.190674 1755.543945,1128.401367 
	C1754.650391,1125.756836 1753.416992,1123.116211 1751.817383,1120.838745 
	C1735.466309,1097.560425 1719.081055,1074.305176 1702.533081,1051.166748 
	C1698.010376,1044.842896 1690.276001,1044.460571 1684.781006,1049.957520 
	C1681.725952,1053.013428 1678.962280,1056.360474 1675.619385,1060.128662 
M1657.842896,1076.319946 
	C1665.853638,1061.367065 1672.588867,1045.904907 1676.639282,1029.365112 
	C1678.806274,1020.515442 1676.413208,1012.954773 1670.284302,1006.000977 
	C1653.161133,1030.169189 1636.221924,1053.997559 1619.380493,1077.894775 
	C1614.125366,1085.351807 1608.532837,1092.667480 1604.190918,1100.644409 
	C1599.855103,1108.610107 1602.986450,1112.990845 1611.927490,1112.042847 
	C1627.802612,1110.359497 1641.463135,1104.446045 1649.914307,1089.844116 
	C1652.408447,1085.534790 1654.917480,1081.234009 1657.842896,1076.319946 
M962.963318,1103.576294 
	C954.706604,1091.918579 946.530273,1080.202393 938.139038,1068.642334 
	C935.919861,1065.585083 933.313904,1062.668457 930.389832,1060.299194 
	C926.873596,1057.450195 923.533875,1058.348022 921.241638,1062.280396 
	C920.252441,1063.977539 919.246643,1065.892456 919.055298,1067.789795 
	C917.909607,1079.147095 916.199402,1090.532959 916.270447,1101.899414 
	C916.324341,1110.513794 921.777527,1117.106079 929.596802,1120.958374 
	C935.076172,1123.657837 940.792725,1125.968628 946.586487,1127.905396 
	C950.632202,1129.257812 954.957947,1130.145264 959.211487,1130.418579 
	C966.072510,1130.859253 969.994690,1127.155151 968.891418,1120.464478 
	C967.972290,1114.890015 965.262512,1109.610596 962.963318,1103.576294 
M1145.804199,998.770325 
	C1146.906494,1004.118408 1147.637695,1009.578064 1149.204224,1014.786499 
	C1151.198730,1021.418701 1155.879761,1024.465454 1162.195801,1024.157593 
	C1168.295654,1023.860229 1173.056763,1020.125000 1174.119385,1013.458496 
	C1176.025635,1001.501282 1177.650757,989.473267 1178.667969,977.413696 
	C1179.060669,972.756042 1177.945435,967.801514 1176.668335,963.218750 
	C1175.285889,958.257874 1171.025757,956.192139 1166.458618,958.388184 
	C1155.776978,963.524292 1146.729004,970.473450 1145.430298,983.453247 
	C1144.954834,988.205139 1145.559814,993.065063 1145.804199,998.770325 
M574.182495,985.489807 
	C573.802979,977.871399 573.821960,970.201111 572.842041,962.660767 
	C572.465271,959.761475 570.319763,955.595398 568.055176,954.861755 
	C565.820007,954.137634 561.447754,956.249878 559.690247,958.454773 
	C551.560486,968.654175 544.014893,979.319214 536.439941,989.573792 
	C540.295959,993.223145 544.041260,995.920776 546.683716,999.445374 
	C552.132690,1006.713074 556.853943,1014.522949 562.187744,1021.882812 
	C563.623901,1023.864441 566.185852,1025.030151 568.231018,1026.570435 
	C569.165100,1024.619141 570.707825,1022.735046 570.932312,1020.705261 
	C572.192200,1009.317566 573.134155,997.894714 574.182495,985.489807 
M740.411926,1125.885620 
	C737.921021,1126.739258 735.430115,1127.592896 732.939148,1128.446533 
	C755.719604,1135.854614 778.510559,1138.462524 802.563477,1137.171265 
	C799.128906,1132.365479 796.684143,1127.890747 793.208984,1124.459351 
	C790.959717,1122.238403 787.073914,1120.133545 784.145020,1120.403564 
	C769.791809,1121.726196 755.513672,1123.863281 740.411926,1125.885620 
M1363.797241,1076.442627 
	C1368.795288,1070.706909 1373.793213,1064.971069 1379.695679,1058.197266 
	C1366.947510,1058.197266 1356.061035,1058.090088 1345.179688,1058.280396 
	C1342.766968,1058.322632 1340.281128,1059.179932 1337.989136,1060.073120 
	C1333.562256,1061.798462 1332.986206,1064.520386 1336.881592,1067.157471 
	C1341.365723,1070.193237 1346.207397,1072.906982 1351.244751,1074.850830 
	C1354.916870,1076.267822 1359.157715,1076.211182 1363.797241,1076.442627 
z"/>
<path fill="#060606" opacity="1.000000" stroke="none" 
	d="
M1453.336060,1138.828857 
	C1452.970825,1137.004028 1452.970825,1135.263306 1452.970825,1133.001343 
	C1456.920776,1135.870972 1456.922852,1136.759399 1453.336060,1138.828857 
z"/>
<path fill="#060606" opacity="1.000000" stroke="none" 
	d="
M1468.286011,1127.984863 
	C1467.960938,1127.806152 1468.009521,1127.645264 1468.031982,1127.233887 
	C1468.692749,1126.667480 1469.356567,1126.198242 1470.074585,1126.090454 
	C1470.544312,1126.019897 1471.092896,1126.473022 1472.774292,1127.189087 
	C1470.610962,1127.616821 1469.635254,1127.809692 1468.286011,1127.984863 
z"/>
<path fill="#060606" opacity="1.000000" stroke="none" 
	d="
M1463.602661,1139.045288 
	C1463.208374,1139.285889 1462.815918,1139.284180 1462.425903,1139.254150 
	C1462.415039,1139.253418 1462.427490,1138.949219 1462.429077,1138.786499 
	C1462.821045,1138.790649 1463.213013,1138.794800 1463.602661,1139.045288 
z"/>
<path fill="#020202" opacity="1.000000" stroke="none" 
	d="
M702.400391,1117.761230 
	C684.123840,1109.538452 668.173828,1098.609863 653.692078,1084.531494 
	C672.269287,1058.290405 690.769653,1032.158081 709.444275,1005.779419 
	C726.876526,1030.393311 744.082764,1054.690918 761.293030,1078.985474 
	C763.697205,1082.379272 766.160156,1085.732056 768.528320,1089.150879 
	C775.055542,1098.573730 773.400513,1107.333130 762.834534,1112.209961 
	C743.630005,1121.073608 723.581055,1124.396973 702.400391,1117.761230 
z"/>
<path fill="#020202" opacity="1.000000" stroke="none" 
	d="
M365.940704,984.059082 
	C357.979065,972.761475 350.106628,961.836243 342.458374,950.756226 
	C339.858490,946.989685 336.389465,942.624939 339.135925,938.047485 
	C342.009460,933.258240 347.554535,934.392944 351.857269,935.860291 
	C367.043701,941.039490 382.338409,946.061218 397.074615,952.354370 
	C411.241180,958.404053 424.831879,965.828613 438.551086,972.891052 
	C449.327301,978.438477 451.119934,986.709473 444.114044,996.572632 
	C432.663757,1012.692810 421.240723,1028.832275 409.475739,1045.429810 
	C394.888702,1024.887695 380.503204,1004.629211 365.940704,984.059082 
z"/>
<path fill="#020202" opacity="1.000000" stroke="none" 
	d="
M1675.843384,1059.852539 
	C1678.962280,1056.360474 1681.725952,1053.013428 1684.781006,1049.957520 
	C1690.276001,1044.460571 1698.010376,1044.842896 1702.533081,1051.166748 
	C1719.081055,1074.305176 1735.466309,1097.560425 1751.817383,1120.838745 
	C1753.416992,1123.116211 1754.650391,1125.756836 1755.543945,1128.401367 
	C1757.162354,1133.190674 1755.162598,1136.542603 1750.102905,1136.688721 
	C1746.215942,1136.801025 1742.156128,1136.039307 1738.404541,1134.902710 
	C1714.607300,1127.692383 1690.778198,1120.562256 1667.162964,1112.787720 
	C1656.171631,1109.169189 1654.095337,1104.118042 1656.953857,1092.718384 
	C1660.112793,1080.120605 1667.627319,1069.978760 1675.843384,1059.852539 
z"/>
<path fill="#030303" opacity="1.000000" stroke="none" 
	d="
M1657.631226,1076.624634 
	C1654.917480,1081.234009 1652.408447,1085.534790 1649.914307,1089.844116 
	C1641.463135,1104.446045 1627.802612,1110.359497 1611.927490,1112.042847 
	C1602.986450,1112.990845 1599.855103,1108.610107 1604.190918,1100.644409 
	C1608.532837,1092.667480 1614.125366,1085.351807 1619.380493,1077.894775 
	C1636.221924,1053.997559 1653.161133,1030.169189 1670.284302,1006.000977 
	C1676.413208,1012.954773 1678.806274,1020.515442 1676.639282,1029.365112 
	C1672.588867,1045.904907 1665.853638,1061.367065 1657.631226,1076.624634 
z"/>
<path fill="#030303" opacity="1.000000" stroke="none" 
	d="
M963.154541,1103.888428 
	C965.262512,1109.610596 967.972290,1114.890015 968.891418,1120.464478 
	C969.994690,1127.155151 966.072510,1130.859253 959.211487,1130.418579 
	C954.957947,1130.145264 950.632202,1129.257812 946.586487,1127.905396 
	C940.792725,1125.968628 935.076172,1123.657837 929.596802,1120.958374 
	C921.777527,1117.106079 916.324341,1110.513794 916.270447,1101.899414 
	C916.199402,1090.532959 917.909607,1079.147095 919.055298,1067.789795 
	C919.246643,1065.892456 920.252441,1063.977539 921.241638,1062.280396 
	C923.533875,1058.348022 926.873596,1057.450195 930.389832,1060.299194 
	C933.313904,1062.668457 935.919861,1065.585083 938.139038,1068.642334 
	C946.530273,1080.202393 954.706604,1091.918579 963.154541,1103.888428 
z"/>
<path fill="#030303" opacity="1.000000" stroke="none" 
	d="
M1145.738037,998.322998 
	C1145.559814,993.065063 1144.954834,988.205139 1145.430298,983.453247 
	C1146.729004,970.473450 1155.776978,963.524292 1166.458618,958.388184 
	C1171.025757,956.192139 1175.285889,958.257874 1176.668335,963.218750 
	C1177.945435,967.801514 1179.060669,972.756042 1178.667969,977.413696 
	C1177.650757,989.473267 1176.025635,1001.501282 1174.119385,1013.458496 
	C1173.056763,1020.125000 1168.295654,1023.860229 1162.195801,1024.157593 
	C1155.879761,1024.465454 1151.198730,1021.418701 1149.204224,1014.786499 
	C1147.637695,1009.578064 1146.906494,1004.118408 1145.738037,998.322998 
z"/>
<path fill="#030303" opacity="1.000000" stroke="none" 
	d="
M574.183594,985.986816 
	C573.134155,997.894714 572.192200,1009.317566 570.932312,1020.705261 
	C570.707825,1022.735046 569.165100,1024.619141 568.231018,1026.570435 
	C566.185852,1025.030151 563.623901,1023.864441 562.187744,1021.882812 
	C556.853943,1014.522949 552.132690,1006.713074 546.683716,999.445374 
	C544.041260,995.920776 540.295959,993.223145 536.439941,989.573792 
	C544.014893,979.319214 551.560486,968.654175 559.690247,958.454773 
	C561.447754,956.249878 565.820007,954.137634 568.055176,954.861755 
	C570.319763,955.595398 572.465271,959.761475 572.842041,962.660767 
	C573.821960,970.201111 573.802979,977.871399 574.183594,985.986816 
z"/>
<path fill="#060606" opacity="1.000000" stroke="none" 
	d="
M740.810425,1125.799072 
	C755.513672,1123.863281 769.791809,1121.726196 784.145020,1120.403564 
	C787.073914,1120.133545 790.959717,1122.238403 793.208984,1124.459351 
	C796.684143,1127.890747 799.128906,1132.365479 802.563477,1137.171265 
	C778.510559,1138.462524 755.719604,1135.854614 732.939148,1128.446533 
	C735.430115,1127.592896 737.921021,1126.739258 740.810425,1125.799072 
z"/>
<path fill="#060606" opacity="1.000000" stroke="none" 
	d="
M1363.471191,1076.627197 
	C1359.157715,1076.211182 1354.916870,1076.267822 1351.244751,1074.850830 
	C1346.207397,1072.906982 1341.365723,1070.193237 1336.881592,1067.157471 
	C1332.986206,1064.520386 1333.562256,1061.798462 1337.989136,1060.073120 
	C1340.281128,1059.179932 1342.766968,1058.322632 1345.179688,1058.280396 
	C1356.061035,1058.090088 1366.947510,1058.197266 1379.695679,1058.197266 
	C1373.793213,1064.971069 1368.795288,1070.706909 1363.471191,1076.627197 
z"/>
</svg>